<svg width="212" height="35" viewBox="0 0 212 35" fill="none" xmlns="http://www.w3.org/2000/svg">
<path d="M13.7341 10.4932C15.4027 10.4932 16.8949 10.8302 18.2105 11.5041C19.0855 11.9522 19.8391 12.5216 20.4727 13.211V10.9745H26.7301V24.5735L20.5448 24.6556C20.7211 24.0164 20.8096 23.3229 20.8096 22.5748C20.8096 21.3555 20.553 20.2805 20.0397 19.3499C19.5583 18.3873 18.8683 17.6491 17.9699 17.1357C17.1035 16.5901 16.0764 16.3174 14.8891 16.3174C13.734 16.3175 12.7072 16.5902 11.8087 17.1357C10.9423 17.6491 10.2523 18.3873 9.73891 19.3499C9.25762 20.2805 9.0169 21.3555 9.0169 22.5748C9.01691 23.3776 9.11654 24.1208 9.3146 24.8047L2.7373 24.8922C2.62361 24.1623 2.56714 23.4057 2.56714 22.6227C2.56716 20.3124 3.04849 18.2427 4.01114 16.4137C4.97381 14.5846 6.30558 13.1406 8.00629 12.0816C9.70698 11.0227 11.6162 10.4932 13.7341 10.4932Z" fill="#FF48AA"/>
<path d="M45.3524 10.4932C47.053 10.4932 48.5774 10.9264 49.9251 11.7927C51.2728 12.627 52.3319 13.7343 53.102 15.1141C53.8721 16.4618 54.2571 17.9218 54.2571 19.4941V24.2078L47.9518 24.2918V20.8901C47.9518 19.5104 47.5186 18.3872 46.6522 17.5208C45.7859 16.6544 44.6627 16.2213 43.2829 16.2212C42.3844 16.2212 41.5822 16.4137 40.8762 16.7988C40.1703 17.1838 39.6087 17.7293 39.1915 18.4352C38.8065 19.1412 38.6137 19.9596 38.6137 20.8901V24.4155L32.3084 24.4995V10.9745H38.6137V13.1537C39.1882 12.564 39.8461 12.0623 40.5873 11.6486C41.9992 10.8784 43.5875 10.4932 45.3524 10.4932Z" fill="#FF48AA"/>
<path d="M68.7774 10.9745H74.2165V16.5099H68.7774V24.015L62.4717 24.0987V16.5099H57.0329V10.9745H62.4717V1.29986H68.7774V10.9745Z" fill="#FF48AA"/>
<path d="M84.1161 23.8114L77.7626 23.8957V10.9745H84.1161V23.8114Z" fill="#FF48AA"/>
<path d="M98.0291 10.397C99.9544 10.397 101.687 10.7341 103.227 11.4079C104.8 12.0818 106.099 13.0924 107.126 14.4401L103.324 18.2428C102.618 17.3764 101.816 16.7505 100.917 16.3654C100.051 15.9803 99.1039 15.7879 98.0771 15.7879C97.1465 15.7879 96.4245 15.9325 95.911 16.2212C95.4298 16.51 95.189 16.9112 95.189 17.4246C95.1891 18.0021 95.4619 18.4512 96.0073 18.7721C96.5849 19.093 97.323 19.3818 98.2215 19.6385C99.12 19.8632 100.051 20.1359 101.013 20.4567C102.008 20.7455 102.939 21.1628 103.805 21.7083C104.584 22.181 105.229 22.7864 105.743 23.524L92.9992 23.6932C92.6991 23.5532 92.4019 23.4057 92.1086 23.2485C91.2101 22.7351 90.472 22.0451 89.8944 21.1787C89.3489 20.2803 89.0762 19.125 89.0762 17.7132C89.0762 16.2371 89.4291 14.9535 90.135 13.8625C90.8731 12.7715 91.916 11.9211 93.2637 11.3114C94.6115 10.7017 96.2 10.397 98.0291 10.397Z" fill="#FF48AA"/>
<path d="M120.812 10.9745H126.251V16.5099H120.812V23.3241L114.507 23.4077V16.5099H109.068V10.9745H114.507V1.29986H120.812V10.9745Z" fill="#FF48AA"/>
<path d="M138.956 10.4932C140.625 10.4932 142.117 10.8302 143.433 11.5041C144.308 11.9522 145.061 12.5216 145.695 13.211V10.9745H151.952V22.9104L146.022 22.9891C146.028 22.8529 146.032 22.7148 146.032 22.5748C146.032 21.3555 145.775 20.2805 145.262 19.3499C144.781 18.3873 144.091 17.6491 143.192 17.1357C142.326 16.5901 141.299 16.3174 140.111 16.3174C138.956 16.3175 137.93 16.5902 137.031 17.1357C136.165 17.6491 135.475 18.3873 134.961 19.3499C134.48 20.2805 134.239 21.3555 134.239 22.5748C134.239 22.7685 134.246 22.9587 134.257 23.1454L127.801 23.231C127.793 23.0301 127.789 22.8273 127.789 22.6227C127.789 20.3124 128.271 18.2427 129.233 16.4137C130.196 14.5846 131.528 13.1406 133.229 12.0816C134.929 11.0227 136.839 10.4932 138.956 10.4932Z" fill="#FF48AA"/>
<path d="M167.254 10.9745H172.693V16.5099H167.254V22.707L160.948 22.791V16.5099H155.509V10.9745H160.948V1.29986H167.254V10.9745Z" fill="#FF48AA"/>
<path d="M182.592 22.5034L176.239 22.588V10.9745H182.592V22.5034Z" fill="#FF48AA"/>
<path d="M199.153 10.4452C200.982 10.4452 202.667 10.782 204.207 11.4558C205.747 12.1297 207.079 13.0925 208.202 14.3439L204.158 18.4352C203.549 17.7613 202.811 17.248 201.944 16.895C201.11 16.5421 200.179 16.3654 199.153 16.3654C197.998 16.3654 196.955 16.6384 196.024 17.1839C195.126 17.6973 194.404 18.4193 193.858 19.3499C193.374 20.1975 193.118 21.2022 193.091 22.3639L186.639 22.4498C186.666 20.209 187.211 18.1969 188.274 16.4137C189.365 14.5846 190.858 13.1406 192.751 12.0816C194.676 10.9906 196.81 10.4452 199.153 10.4452Z" fill="#FF48AA"/>
<path d="M80.9392 7.62939e-06C81.9981 7.62939e-06 82.8486 0.353237 83.4903 1.0592C84.1642 1.76512 84.5013 2.61533 84.5013 3.61002C84.5013 4.63687 84.1642 5.50346 83.4903 6.20942C82.8486 6.88324 81.9981 7.22003 80.9392 7.22003C79.9125 7.22 79.0622 6.88319 78.3884 6.20942C77.7145 5.50346 77.3775 4.63687 77.3775 3.61002C77.3775 2.61532 77.7145 1.76512 78.3884 1.0592C79.0622 0.353266 79.9124 3.68022e-05 80.9392 7.62939e-06Z" fill="#FF48AA"/>
<path d="M179.415 7.62939e-06C180.474 7.62939e-06 181.325 0.353237 181.967 1.0592C182.64 1.76512 182.978 2.61533 182.978 3.61002C182.978 4.63687 182.64 5.50346 181.967 6.20942C181.325 6.88324 180.474 7.22003 179.415 7.22003C178.389 7.22 177.538 6.88319 176.865 6.20942C176.191 5.50346 175.854 4.63687 175.854 3.61002C175.854 2.61532 176.191 1.76512 176.865 1.0592C177.538 0.353268 178.389 3.90462e-05 179.415 7.62939e-06Z" fill="#FF48AA"/>
<path d="M11.1669 10.4932C12.8355 10.4932 14.3277 10.8302 15.6434 11.5041C16.5183 11.9522 17.2719 12.5216 17.9056 13.211V10.9745H24.163V24.6076L17.9683 24.6897C18.1509 24.0411 18.2425 23.3362 18.2425 22.5748C18.2425 21.3555 17.9859 20.2805 17.4725 19.3499C16.9912 18.3873 16.3012 17.6491 15.4027 17.1356C14.5363 16.5901 13.5093 16.3174 12.322 16.3174C11.1668 16.3175 10.14 16.5902 9.24157 17.1356C8.37517 17.6491 7.68519 18.3872 7.17177 19.3499C6.69048 20.2805 6.44977 21.3555 6.44977 22.5748C6.44977 23.391 6.55276 24.1456 6.75749 24.8389L0.858945 24.9172L0.181441 24.9595C0.0606325 24.2088 0 23.4298 0 22.6227C1.71712e-05 20.3124 0.481352 18.2427 1.44401 16.4136C2.40667 14.5846 3.73844 13.1406 5.43915 12.0816C7.13984 11.0227 9.04908 10.4932 11.1669 10.4932Z" fill="#5B8DF9"/>
<path d="M42.7852 10.4932C44.4859 10.4932 46.0102 10.9264 47.3579 11.7927C48.7057 12.627 49.7647 13.7343 50.5349 15.1141C51.305 16.4618 51.6899 17.9218 51.6899 19.4941V24.2419L45.3846 24.3256V20.8901C45.3846 19.5103 44.9514 18.3872 44.0851 17.5208C43.2187 16.6544 42.0955 16.2213 40.7157 16.2212C39.8173 16.2212 39.015 16.4137 38.3091 16.7988C37.6031 17.1838 37.0415 17.7293 36.6244 18.4352C36.2393 19.1411 36.0465 19.9595 36.0465 20.8901V24.4497L29.7412 24.5334V10.9745H36.0465V13.1537C36.6211 12.564 37.2789 12.0623 38.0201 11.6486C39.432 10.8784 41.0204 10.4932 42.7852 10.4932Z" fill="#5B8DF9"/>
<path d="M66.2102 10.9745H71.6494V16.5099H66.2102V24.0492L59.9046 24.1329V16.5099H54.4658V10.9745H59.9046V1.29985H66.2102V10.9745Z" fill="#5B8DF9"/>
<path d="M81.549 23.8455L75.1954 23.9298V10.9745H81.549V23.8455Z" fill="#5B8DF9"/>
<path d="M95.462 10.397C97.3872 10.397 99.1199 10.7341 100.66 11.4079C102.232 12.0817 103.532 13.0923 104.559 14.44L100.757 18.2428C100.051 17.3764 99.2485 16.7505 98.35 16.3654C97.4836 15.9803 96.5368 15.7878 95.5099 15.7878C94.5794 15.7879 93.8573 15.9324 93.3439 16.2212C92.8626 16.51 92.6219 16.9112 92.6219 17.4246C92.6219 18.0021 92.8947 18.4512 93.4401 18.7721C94.0177 19.0929 94.7559 19.3818 95.6544 19.6385C96.5529 19.8631 97.4835 20.1358 98.4462 20.4567C99.4409 20.7455 100.372 21.1628 101.238 21.7083C102.028 22.1882 102.682 22.8048 103.199 23.5578L90.5026 23.7264C90.1783 23.5769 89.8578 23.418 89.5415 23.2485C88.643 22.7351 87.9048 22.0451 87.3272 21.1787C86.7818 20.2803 86.509 19.125 86.509 17.7132C86.509 16.2371 86.8619 14.9535 87.5679 13.8625C88.3059 12.7715 89.3488 11.9211 90.6966 11.3114C92.0443 10.7017 93.6329 10.397 95.462 10.397Z" fill="#5B8DF9"/>
<path d="M118.245 10.9745H123.684V16.5099H118.245V23.3579L111.94 23.4419V16.5099H106.501V10.9745H111.94V1.29985H118.245V10.9745Z" fill="#5B8DF9"/>
<path d="M136.389 10.4932C138.058 10.4932 139.55 10.8302 140.866 11.5041C141.741 11.9522 142.494 12.5216 143.128 13.211V10.9745H149.385V22.9446L143.454 23.0232C143.461 22.876 143.465 22.7265 143.465 22.5748C143.465 21.3555 143.208 20.2805 142.695 19.3499C142.214 18.3873 141.524 17.6491 140.625 17.1356C139.759 16.5901 138.732 16.3174 137.544 16.3174C136.389 16.3175 135.362 16.5902 134.464 17.1356C133.598 17.6491 132.908 18.3872 132.394 19.3499C131.913 20.2805 131.672 21.3555 131.672 22.5748C131.672 22.7803 131.679 22.9819 131.692 23.1796L125.235 23.2651C125.227 23.0531 125.222 22.8389 125.222 22.6227C125.222 20.3124 125.704 18.2427 126.666 16.4136C127.629 14.5846 128.961 13.1406 130.661 12.0816C132.362 11.0227 134.271 10.4932 136.389 10.4932Z" fill="#5B8DF9"/>
<path d="M164.686 10.9745H170.126V16.5099H164.686V22.7412L158.381 22.8249V16.5099H152.942V10.9745H158.381V1.29985H164.686V10.9745Z" fill="#5B8DF9"/>
<path d="M180.025 22.5375L173.672 22.6218V10.9745H180.025V22.5375Z" fill="#5B8DF9"/>
<path d="M196.586 10.4452C198.415 10.4452 200.099 10.782 201.64 11.4558C203.18 12.1297 204.511 13.0924 205.634 14.3438L201.591 18.4352C200.982 17.7613 200.243 17.248 199.377 16.895C198.543 16.542 197.612 16.3654 196.586 16.3654C195.43 16.3654 194.387 16.6384 193.457 17.1839C192.558 17.6973 191.836 18.4193 191.291 19.3499C190.802 20.2058 190.546 21.2218 190.523 22.3981L184.072 22.4839C184.093 20.2294 184.638 18.206 185.707 16.4136C186.798 14.5846 188.291 13.1406 190.184 12.0816C192.109 10.9906 194.243 10.4452 196.586 10.4452Z" fill="#5B8DF9"/>
<path d="M78.3721 0C79.431 0 80.2814 0.353229 80.9232 1.05919C81.597 1.76511 81.9341 2.61532 81.9341 3.61001C81.9341 4.63686 81.5971 5.50345 80.9232 6.20941C80.2814 6.88323 79.431 7.22002 78.3721 7.22002C77.3453 7.22 76.4951 6.88319 75.8212 6.20941C75.1474 5.50345 74.8103 4.63686 74.8103 3.61001C74.8103 2.61531 75.1474 1.76511 75.8212 1.05919C76.4951 0.353258 77.3453 2.91728e-05 78.3721 0Z" fill="#5B8DF9"/>
<path d="M176.848 0C177.907 0 178.758 0.353229 179.399 1.05919C180.073 1.76511 180.41 2.61532 180.41 3.61001C180.41 4.63686 180.073 5.50345 179.399 6.20941C178.758 6.88323 177.907 7.22002 176.848 7.22002C175.822 7.21999 174.971 6.88319 174.298 6.20941C173.624 5.50345 173.287 4.63686 173.287 3.61001C173.287 2.61531 173.624 1.76511 174.298 1.05919C174.971 0.353261 175.822 3.14168e-05 176.848 0Z" fill="#5B8DF9"/>
<path d="M12.4505 10.4932C14.1191 10.4932 15.6113 10.8302 16.927 11.5041C17.8019 11.9522 18.5555 12.5216 19.1892 13.211V10.9745H25.4465V24.5904L19.2565 24.6728C19.436 24.0289 19.526 23.3296 19.526 22.5748C19.526 21.3555 19.2695 20.2805 18.7561 19.3499C18.2748 18.3873 17.5848 17.6491 16.6863 17.1357C15.8199 16.5901 14.7929 16.3174 13.6056 16.3174C12.4504 16.3175 11.4236 16.5902 10.5251 17.1357C9.65874 17.6491 8.96876 18.3873 8.45534 19.3499C7.97405 20.2805 7.73333 21.3555 7.73333 22.5748C7.73334 23.3842 7.83469 24.1331 8.03605 24.8217L1.45655 24.9091C1.3411 24.174 1.28357 23.4118 1.28357 22.6227C1.28359 20.3124 1.76492 18.2427 2.72757 16.4137C3.69024 14.5846 5.02201 13.1406 6.72272 12.0816C8.42341 11.0227 10.3326 10.4932 12.4505 10.4932Z" fill="white"/>
<path d="M44.0688 10.4932C45.7695 10.4932 47.2938 10.9264 48.6415 11.7927C49.9892 12.627 51.0483 13.7343 51.8184 15.1141C52.5885 16.4618 52.9735 17.9218 52.9735 19.4941V24.225L46.6682 24.3087V20.8901C46.6682 19.5104 46.235 18.3872 45.3687 17.5208C44.5023 16.6544 43.3791 16.2213 41.9993 16.2212C41.1009 16.2212 40.2986 16.4137 39.5926 16.7988C38.8867 17.1838 38.3251 17.7293 37.908 18.4352C37.5229 19.1412 37.3301 19.9596 37.3301 20.8901V24.4328L31.0248 24.5164V10.9745H37.3301V13.1537C37.9047 12.564 38.5625 12.0623 39.3037 11.6486C40.7156 10.8784 42.304 10.4932 44.0688 10.4932Z" fill="white"/>
<path d="M67.4938 10.9745H72.9329V16.5099H67.4938V24.032L61.1882 24.116V16.5099H55.7493V10.9745H61.1882V1.29986H67.4938V10.9745Z" fill="white"/>
<path d="M82.8326 23.8283L76.479 23.9129V10.9745H82.8326V23.8283Z" fill="white"/>
<path d="M96.7455 10.397C98.6708 10.397 100.403 10.7341 101.944 11.4079C103.516 12.0818 104.816 13.0924 105.843 14.4401L102.04 18.2428C101.334 17.3764 100.532 16.7505 99.6336 16.3654C98.7672 15.9803 97.8203 15.7879 96.7935 15.7879C95.8629 15.7879 95.1409 15.9325 94.6275 16.2212C94.1462 16.51 93.9055 16.9112 93.9055 17.4246C93.9055 18.0021 94.1783 18.4512 94.7237 18.7721C95.3013 19.093 96.0395 19.3818 96.938 19.6385C97.8364 19.8632 98.7671 20.1359 99.7298 20.4567C100.725 20.7455 101.655 21.1628 102.522 21.7083C103.306 22.1846 103.956 22.7956 104.471 23.5409L91.7511 23.7098C91.4388 23.565 91.1299 23.4118 90.8251 23.2485C89.9266 22.7351 89.1884 22.0451 88.6108 21.1787C88.0653 20.2803 87.7926 19.125 87.7926 17.7132C87.7926 16.2371 88.1455 14.9535 88.8515 13.8625C89.5895 12.7715 90.6324 11.9211 91.9801 11.3114C93.3279 10.7017 94.9165 10.397 96.7455 10.397Z" fill="white"/>
<path d="M119.529 10.9745H124.968V16.5099H119.529V23.341L113.223 23.4247V16.5099H107.784V10.9745H113.223V1.29986H119.529V10.9745Z" fill="white"/>
<path d="M137.673 10.4932C139.341 10.4932 140.834 10.8302 142.149 11.5041C143.024 11.9522 143.778 12.5216 144.412 13.211V10.9745H150.669V22.9273L144.738 23.0063C144.744 22.8645 144.748 22.7207 144.748 22.5748C144.748 21.3555 144.492 20.2805 143.978 19.3499C143.497 18.3873 142.807 17.6491 141.909 17.1357C141.042 16.5901 140.015 16.3174 138.828 16.3174C137.673 16.3175 136.646 16.5902 135.747 17.1357C134.881 17.6491 134.191 18.3873 133.678 19.3499C133.196 20.2805 132.956 21.3555 132.956 22.5748C132.956 22.7743 132.962 22.9702 132.974 23.1624L126.518 23.2482C126.51 23.0417 126.506 22.8331 126.506 22.6227C126.506 20.3124 126.987 18.2427 127.95 16.4137C128.913 14.5846 130.244 13.1406 131.945 12.0816C133.646 11.0227 135.555 10.4932 137.673 10.4932Z" fill="white"/>
<path d="M165.97 10.9745H171.409V16.5099H165.97V22.7243L159.664 22.808V16.5099H154.226V10.9745H159.664V1.29986H165.97V10.9745Z" fill="white"/>
<path d="M181.309 22.5206L174.955 22.6049V10.9745H181.309V22.5206Z" fill="white"/>
<path d="M197.869 10.4452C199.698 10.4452 201.383 10.782 202.923 11.4558C204.463 12.1297 205.795 13.0925 206.918 14.3439L202.875 18.4352C202.265 17.7613 201.527 17.248 200.661 16.895C199.826 16.5421 198.896 16.3654 197.869 16.3654C196.714 16.3654 195.671 16.6384 194.74 17.1839C193.842 17.6973 193.12 18.4193 192.574 19.3499C192.088 20.2017 191.832 21.2121 191.807 22.3811L185.355 22.4667C185.379 20.2191 185.924 18.2014 186.991 16.4137C188.082 14.5846 189.574 13.1406 191.467 12.0816C193.393 10.9906 195.527 10.4452 197.869 10.4452Z" fill="white"/>
<path d="M79.6556 7.62939e-06C80.7146 7.62939e-06 81.565 0.353237 82.2068 1.0592C82.8806 1.76512 83.2177 2.61533 83.2177 3.61002C83.2177 4.63687 82.8807 5.50346 82.2068 6.20942C81.565 6.88324 80.7145 7.22003 79.6556 7.22003C78.6289 7.22 77.7786 6.88319 77.1048 6.20942C76.4309 5.50346 76.0939 4.63687 76.0939 3.61002C76.0939 2.61532 76.431 1.76512 77.1048 1.0592C77.7787 0.353266 78.6289 3.68022e-05 79.6556 7.62939e-06Z" fill="white"/>
<path d="M178.132 7.62939e-06C179.191 7.62939e-06 180.041 0.353237 180.683 1.0592C181.357 1.76512 181.694 2.61533 181.694 3.61002C181.694 4.63687 181.357 5.50346 180.683 6.20942C180.041 6.88324 179.191 7.22003 178.132 7.22003C177.105 7.22 176.255 6.88319 175.581 6.20942C174.907 5.50346 174.57 4.63687 174.57 3.61002C174.57 2.61532 174.907 1.76512 175.581 1.0592C176.255 0.353268 177.105 3.90462e-05 178.132 7.62939e-06Z" fill="white"/>
<path d="M106.061 23.5199C106.141 23.635 106.218 23.7529 106.292 23.8743C106.87 24.7728 107.158 25.928 107.158 27.3399C107.158 29.6182 106.34 31.4313 104.704 32.779C103.067 34.0947 100.837 34.7526 98.0129 34.7526C96.6973 34.7526 95.3977 34.576 94.1142 34.223C92.8628 33.8701 91.7076 33.3887 90.6487 32.779C89.5898 32.1373 88.675 31.3671 87.9048 30.4686L91.6593 26.6662C92.4615 27.5646 93.3922 28.2384 94.4511 28.6877C95.51 29.1369 96.6814 29.3614 97.9649 29.3614C98.9917 29.3614 99.762 29.2172 100.275 28.9284C100.821 28.6396 101.094 28.2064 101.094 27.6288C101.094 26.987 100.805 26.4895 100.227 26.1366C99.6816 25.7836 98.9596 25.4947 98.0611 25.2701C97.1627 25.0134 96.2161 24.7407 95.2214 24.4519C94.5699 24.2347 93.9335 23.9798 93.3114 23.6891L106.061 23.5199Z" fill="#5B8DF9"/>
<path d="M27.051 34.223H20.7937V31.9649C20.16 32.6473 19.4064 33.2239 18.5315 33.6935C17.2158 34.3673 15.7236 34.7044 14.055 34.7044C11.9371 34.7044 10.0279 34.1748 8.32723 33.1159C6.62652 32.057 5.29476 30.613 4.33209 28.7839C3.69959 27.5821 3.27454 26.2835 3.05762 24.8878L9.6343 24.8007C9.74516 25.1844 9.88669 25.5496 10.0599 25.8959C10.5733 26.8265 11.2633 27.5646 12.1297 28.1102C13.0281 28.6236 14.0549 28.8801 15.2101 28.8801C16.975 28.8801 18.4031 28.3027 19.4941 27.1475C20.1476 26.4364 20.6049 25.6043 20.867 24.6515L27.051 24.5691V34.223Z" fill="#5B8DF9"/>
<path d="M152.273 34.223H146.016V31.9649C145.382 32.6473 144.629 33.2239 143.754 33.6935C142.438 34.3673 140.946 34.7044 139.277 34.7044C137.159 34.7044 135.25 34.1748 133.55 33.1159C131.849 32.057 130.517 30.613 129.554 28.7839C128.678 27.1179 128.2 25.2656 128.122 23.2269L134.578 23.1411C134.64 24.1628 134.875 25.0811 135.282 25.8959C135.796 26.8265 136.486 27.5646 137.352 28.1102C138.25 28.6236 139.277 28.8801 140.432 28.8801C142.197 28.8801 143.625 28.3027 144.716 27.1475C145.726 26.0486 146.268 24.6611 146.343 22.985L152.273 22.906V34.223Z" fill="#5B8DF9"/>
<path d="M193.409 22.5748C193.409 23.7942 193.666 24.8853 194.179 25.8479C194.724 26.7785 195.447 27.5164 196.345 28.0619C197.276 28.5753 198.318 28.8322 199.474 28.8322C200.533 28.8321 201.479 28.6555 202.313 28.3026C203.18 27.9175 203.918 27.3721 204.528 26.6662L208.619 30.7575C207.432 32.041 206.068 33.0196 204.528 33.6935C202.987 34.3673 201.303 34.7044 199.474 34.7044C197.099 34.7044 194.965 34.1748 193.072 33.1159C191.179 32.057 189.686 30.613 188.595 28.7839C187.504 26.9548 186.959 24.901 186.959 22.6227C186.959 22.5635 186.959 22.5043 186.96 22.4454L193.412 22.3598C193.41 22.4309 193.409 22.5026 193.409 22.5748Z" fill="#5B8DF9"/>
<path d="M38.9346 34.223H32.6293V24.4951L38.9346 24.4115V34.223Z" fill="#5B8DF9"/>
<path d="M54.578 34.223H48.2727V24.2874L54.578 24.2037V34.223Z" fill="#5B8DF9"/>
<path d="M69.0983 34.223H62.7927V24.0946L69.0983 24.0107V34.223Z" fill="#5B8DF9"/>
<path d="M84.4371 34.223H78.0835V23.8916L84.4371 23.807V34.223Z" fill="#5B8DF9"/>
<path d="M121.133 34.223H114.828V23.4034L121.133 23.3197V34.223Z" fill="#5B8DF9"/>
<path d="M167.575 34.223H161.269V22.7866L167.575 22.703V34.223Z" fill="#5B8DF9"/>
<path d="M182.913 34.223H176.56V22.5836L182.913 22.4993V34.223Z" fill="#5B8DF9"/>
<path d="M108.604 23.4861C108.693 23.6117 108.778 23.7409 108.859 23.8744C109.437 24.7728 109.725 25.928 109.725 27.3399C109.725 29.6182 108.907 31.4313 107.271 32.779C105.634 34.0947 103.404 34.7526 100.58 34.7526C99.2643 34.7526 97.9648 34.576 96.6813 34.2231C95.4298 33.8701 94.2746 33.3887 93.2157 32.779C92.1568 32.1373 91.242 31.3671 90.4719 30.4686L94.2263 26.6662C95.0286 27.5647 95.9592 28.2385 97.0181 28.6877C98.0771 29.1369 99.2484 29.3614 100.532 29.3614C101.559 29.3614 102.329 29.2172 102.842 28.9284C103.388 28.6396 103.661 28.2064 103.661 27.6288C103.661 26.987 103.372 26.4895 102.794 26.1366C102.249 25.7836 101.527 25.4947 100.628 25.2701C99.7297 25.0134 98.7831 24.7407 97.7884 24.4519C97.1122 24.2265 96.4522 23.9605 95.8076 23.6559L108.604 23.4861Z" fill="#FF48AA"/>
<path d="M29.6181 34.2231H23.3607V31.9649C22.727 32.6473 21.9735 33.224 21.0985 33.6935C19.7829 34.3673 18.2906 34.7044 16.622 34.7044C14.5042 34.7044 12.595 34.1748 10.8943 33.1159C9.19354 32.057 7.86179 30.613 6.89912 28.7839C6.26151 27.5724 5.83492 26.2625 5.61963 24.8539L12.191 24.7665C12.3032 25.1628 12.4486 25.5393 12.6269 25.8959C13.1403 26.8265 13.8303 27.5647 14.6967 28.1102C15.5951 28.6236 16.622 28.8801 17.7771 28.8801C19.542 28.8801 20.9701 28.3027 22.0612 27.1475C22.7225 26.4279 23.1827 25.5842 23.4431 24.617L29.6181 24.5352V34.2231Z" fill="#FF48AA"/>
<path d="M154.84 34.2231H148.583V31.9649C147.949 32.6473 147.196 33.224 146.321 33.6935C145.005 34.3673 143.513 34.7044 141.844 34.7044C139.727 34.7044 137.817 34.1748 136.117 33.1159C134.416 32.057 133.084 30.613 132.121 28.7839C131.24 27.1086 130.762 25.2449 130.688 23.1928L137.143 23.1069C137.202 24.1423 137.437 25.072 137.849 25.8959C138.363 26.8265 139.053 27.5647 139.919 28.1102C140.817 28.6236 141.844 28.8801 142.999 28.8801C144.764 28.8801 146.192 28.3027 147.284 27.1475C148.3 26.0412 148.843 24.6423 148.912 22.9509L154.84 22.8719V34.2231Z" fill="#FF48AA"/>
<path d="M195.98 22.3257C195.977 22.4079 195.976 22.491 195.976 22.5748C195.976 23.7942 196.233 24.8853 196.746 25.848C197.292 26.7785 198.014 27.5164 198.912 28.0619C199.843 28.5753 200.886 28.8322 202.041 28.8322C203.1 28.8322 204.046 28.6555 204.88 28.3026C205.747 27.9175 206.485 27.3721 207.095 26.6662L211.186 30.7575C209.999 32.041 208.635 33.0196 207.095 33.6935C205.554 34.3673 203.87 34.7044 202.041 34.7044C199.666 34.7044 197.532 34.1749 195.639 33.1159C193.746 32.057 192.253 30.613 191.162 28.7839C190.071 26.9548 189.526 24.9011 189.526 22.6228C189.526 22.552 189.526 22.4815 189.527 22.4112L195.98 22.3257Z" fill="#FF48AA"/>
<path d="M41.5017 34.2231H35.1964V24.461L41.5017 24.3773V34.2231Z" fill="#FF48AA"/>
<path d="M57.145 34.2231H50.8397V24.2532L57.145 24.1695V34.2231Z" fill="#FF48AA"/>
<path d="M71.6653 34.2231H65.3597V24.0605L71.6653 23.9768V34.2231Z" fill="#FF48AA"/>
<path d="M87.0041 34.2231H80.6506V23.8574L87.0041 23.7728V34.2231Z" fill="#FF48AA"/>
<path d="M123.7 34.2231H117.395V23.3692L123.7 23.2855V34.2231Z" fill="#FF48AA"/>
<path d="M170.142 34.2231H163.836V22.7525L170.142 22.6688V34.2231Z" fill="#FF48AA"/>
<path d="M185.48 34.2231H179.127V22.5494L185.48 22.4651V34.2231Z" fill="#FF48AA"/>
<path d="M107.332 23.503C107.416 23.6234 107.498 23.7469 107.575 23.8744C108.153 24.7728 108.442 25.928 108.442 27.3399C108.442 29.6182 107.624 31.4313 105.987 32.7791C104.35 34.0947 102.12 34.7526 99.2963 34.7526C97.9807 34.7526 96.6811 34.576 95.3976 34.2231C94.1462 33.8701 92.991 33.3887 91.9321 32.7791C90.8731 32.1373 89.9584 31.3671 89.1882 30.4686L92.9427 26.6662C93.7449 27.5647 94.6756 28.2385 95.7345 28.6877C96.7934 29.1369 97.9648 29.3614 99.2483 29.3614C100.275 29.3614 101.045 29.2172 101.559 28.9284C102.104 28.6396 102.377 28.2064 102.377 27.6288C102.377 26.987 102.088 26.4895 101.511 26.1366C100.965 25.7836 100.243 25.4947 99.3445 25.2701C98.4461 25.0134 97.4995 24.7407 96.5048 24.4519C95.8409 24.2306 95.1927 23.9701 94.5594 23.6725L107.332 23.503Z" fill="white"/>
<path d="M28.3344 34.2231H22.0771V31.9649C21.4434 32.6473 20.6898 33.224 19.8149 33.6935C18.4992 34.3673 17.007 34.7044 15.3384 34.7044C13.2205 34.7044 11.3113 34.1748 9.61062 33.1159C7.90991 32.057 6.57815 30.613 5.61548 28.7839C4.98042 27.5773 4.55462 26.273 4.3385 24.8709L10.9127 24.7834C11.0242 25.1735 11.1675 25.5444 11.3432 25.8959C11.8567 26.8265 12.5466 27.5647 13.413 28.1102C14.3115 28.6236 15.3383 28.8801 16.4935 28.8801C18.2584 28.8801 19.6865 28.3027 20.7775 27.1475C21.4349 26.4321 21.8935 25.5942 22.1548 24.6343L28.3344 24.5522V34.2231Z" fill="white"/>
<path d="M153.557 34.2231H147.299V31.9649C146.666 32.6473 145.912 33.224 145.037 33.6935C143.722 34.3673 142.229 34.7044 140.561 34.7044C138.443 34.7044 136.534 34.1748 134.833 33.1159C133.132 32.057 131.8 30.613 130.838 28.7839C129.959 27.1132 129.481 25.2552 129.405 23.2097L135.86 23.1241C135.921 24.1526 136.156 25.0766 136.566 25.8959C137.079 26.8265 137.769 27.5647 138.635 28.1102C139.534 28.6236 140.561 28.8801 141.716 28.8801C143.481 28.8801 144.909 28.3027 146 27.1475C147.013 26.0449 147.555 24.6516 147.628 22.9678L153.557 22.8891V34.2231Z" fill="white"/>
<path d="M194.692 22.5748C194.692 23.7942 194.949 24.8853 195.462 25.848C196.008 26.7785 196.73 27.5164 197.628 28.0619C198.559 28.5753 199.602 28.8322 200.757 28.8322C201.816 28.8322 202.763 28.6555 203.597 28.3026C204.463 27.9175 205.201 27.3721 205.811 26.6662L209.902 30.7575C208.715 32.041 207.351 33.0196 205.811 33.6935C204.271 34.3673 202.586 34.7044 200.757 34.7044C198.382 34.7044 196.248 34.1749 194.355 33.1159C192.462 32.057 190.97 30.613 189.879 28.7839C188.788 26.9548 188.242 24.9011 188.242 22.6228C188.242 22.5578 188.243 22.493 188.244 22.4285L194.695 22.3426C194.693 22.4193 194.692 22.4967 194.692 22.5748Z" fill="white"/>
<path d="M40.218 34.2231H33.9127V24.4782L40.218 24.3942V34.2231Z" fill="white"/>
<path d="M55.8614 34.2231H49.5561V24.2705L55.8614 24.1865V34.2231Z" fill="white"/>
<path d="M70.3817 34.2231H64.0761V24.0774L70.3817 23.9937V34.2231Z" fill="white"/>
<path d="M85.7205 34.2231H79.3669V23.8744L85.7205 23.7901V34.2231Z" fill="white"/>
<path d="M122.417 34.2231H116.111V23.3864L122.417 23.3028V34.2231Z" fill="white"/>
<path d="M168.858 34.2231H162.552V22.7697L168.858 22.6857V34.2231Z" fill="white"/>
<path d="M184.197 34.2231H177.843V22.5667L184.197 22.4821V34.2231Z" fill="white"/>
</svg>
