<svg width="272" height="70" viewBox="0 0 272 70" fill="none" xmlns="http://www.w3.org/2000/svg">
<rect x="0.5" y="0.5" width="270.05" height="68.8582" rx="15.5" fill="white" stroke="#D5E2FF"/>
<path d="M86.8552 35.8447C86.8552 39.5332 84.4409 42.1152 81.0039 42.1152C77.5836 42.1152 75.2029 39.5332 75.2029 35.8447C75.2029 32.1729 77.6004 29.5742 81.0207 29.5742C84.4577 29.5742 86.8552 32.1562 86.8552 35.8447ZM85.1283 35.8447C85.1283 33.028 83.4853 31.167 81.0207 31.167C78.5561 31.167 76.9298 33.028 76.9298 35.8447C76.9298 38.6614 78.5561 40.5392 81.0207 40.5392C83.4853 40.5392 85.1283 38.6446 85.1283 35.8447Z" fill="#151C2D"/>
<path d="M88.6885 45.5857V33.7154H90.1136L90.2309 35.1908C90.7842 34.0675 91.8908 33.4807 93.1985 33.4807C95.5458 33.4807 97.0044 35.2411 97.0044 37.756C97.0044 40.2541 95.6296 42.1319 93.1985 42.1319C91.8908 42.1319 90.801 41.5786 90.2645 40.5727V45.5857H88.6885ZM90.2812 37.8231C90.2812 39.4997 91.2537 40.7068 92.8632 40.7068C94.4727 40.7068 95.4284 39.4997 95.4284 37.8231C95.4284 36.1297 94.4727 34.9226 92.8632 34.9226C91.2537 34.9226 90.2812 36.1129 90.2812 37.8231Z" fill="#151C2D"/>
<path d="M98.7415 45.5857V33.7154H100.167L100.284 35.1908C100.837 34.0675 101.944 33.4807 103.252 33.4807C105.599 33.4807 107.057 35.2411 107.057 37.756C107.057 40.2541 105.683 42.1319 103.252 42.1319C101.944 42.1319 100.854 41.5786 100.317 40.5727V45.5857H98.7415ZM100.334 37.8231C100.334 39.4997 101.307 40.7068 102.916 40.7068C104.526 40.7068 105.481 39.4997 105.481 37.8231C105.481 36.1297 104.526 34.9226 102.916 34.9226C101.307 34.9226 100.334 36.1129 100.334 37.8231Z" fill="#151C2D"/>
<path d="M108.258 37.8063C108.258 35.2746 110.069 33.4975 112.533 33.4975C114.981 33.4975 116.792 35.2746 116.792 37.8063C116.792 40.338 114.981 42.1152 112.533 42.1152C110.069 42.1152 108.258 40.338 108.258 37.8063ZM109.851 37.8063C109.851 39.5164 110.941 40.7068 112.533 40.7068C114.109 40.7068 115.216 39.5164 115.216 37.8063C115.216 36.0962 114.109 34.9058 112.533 34.9058C110.941 34.9058 109.851 36.0962 109.851 37.8063Z" fill="#151C2D"/>
<path d="M123.231 33.6483V35.0902H122.527C121.035 35.0902 120.112 35.9956 120.112 37.5716V41.914H118.536V33.7322H120.012L120.112 34.9729C120.448 34.1178 121.269 33.5478 122.393 33.5478C122.678 33.5478 122.912 33.5813 123.231 33.6483Z" fill="#151C2D"/>
<path d="M127.35 41.914H125.774V35.0399H124.165V33.7154H125.774V31.1502H127.35V33.7154H128.96V35.0399H127.35V41.914Z" fill="#151C2D"/>
<path d="M136.041 33.7154H137.6V41.914H136.192L136.024 40.6733C135.555 41.5283 134.465 42.1152 133.258 42.1152C131.347 42.1152 130.274 40.8242 130.274 38.8123V33.7154H131.85V38.2925C131.85 40.0529 132.604 40.7236 133.811 40.7236C135.253 40.7236 136.041 39.8015 136.041 38.041V33.7154Z" fill="#151C2D"/>
<path d="M141.463 41.914H139.887V33.7154H141.312L141.48 34.9729C141.999 34.034 143.039 33.4807 144.196 33.4807C146.359 33.4807 147.348 34.8052 147.348 36.9009V41.914H145.772V37.253C145.772 35.5932 145 34.9226 143.793 34.9226C142.318 34.9226 141.463 35.9788 141.463 37.5716V41.914Z" fill="#151C2D"/>
<path d="M150.302 31.7706C149.732 31.7706 149.262 31.3011 149.262 30.7311C149.262 30.1443 149.732 29.6916 150.302 29.6916C150.872 29.6916 151.341 30.1443 151.341 30.7311C151.341 31.3011 150.872 31.7706 150.302 31.7706ZM149.531 41.914V33.7154H151.107V41.914H149.531Z" fill="#151C2D"/>
<path d="M155.708 41.914H154.132V35.0399H152.523V33.7154H154.132V31.1502H155.708V33.7154H157.318V35.0399H155.708V41.914Z" fill="#151C2D"/>
<path d="M157.944 45.5857V44.2947H159C159.755 44.2947 160.358 44.1774 160.744 43.1379L161.029 42.3499L157.726 33.7154H159.386L161.767 40.3212L164.198 33.7154H165.824L161.951 43.7582C161.398 45.1666 160.576 45.7534 159.319 45.7534C158.799 45.7534 158.363 45.6863 157.944 45.5857Z" fill="#151C2D"/>
<path d="M175.942 41.914H171.935V29.7922H175.875C179.497 29.7922 181.944 32.24 181.944 35.8615C181.944 39.4661 179.53 41.914 175.942 41.914ZM175.758 31.3011H173.578V40.3883H175.825C178.524 40.3883 180.234 38.6446 180.234 35.8615C180.234 33.0448 178.524 31.3011 175.758 31.3011Z" fill="#151C2D"/>
<path d="M187.304 42.1152C184.89 42.1152 183.23 40.3715 183.23 37.8231C183.23 35.2579 184.856 33.4807 187.237 33.4807C189.568 33.4807 191.093 35.0902 191.093 37.5213V38.1081L184.756 38.1249C184.873 39.8518 185.778 40.8074 187.338 40.8074C188.562 40.8074 189.366 40.3044 189.635 39.3655H191.11C190.708 41.126 189.333 42.1152 187.304 42.1152ZM187.237 34.8052C185.862 34.8052 184.99 35.6267 184.789 37.0686H189.517C189.517 35.7106 188.629 34.8052 187.237 34.8052Z" fill="#151C2D"/>
<path d="M195.085 41.914H193.509V35.0399H191.9V33.7154H193.509V31.1502H195.085V33.7154H196.695V35.0399H195.085V41.914Z" fill="#151C2D"/>
<path d="M201.565 42.1152C199.151 42.1152 197.491 40.3715 197.491 37.8231C197.491 35.2579 199.117 33.4807 201.498 33.4807C203.828 33.4807 205.354 35.0902 205.354 37.5213V38.1081L199.017 38.1249C199.134 39.8518 200.039 40.8074 201.599 40.8074C202.822 40.8074 203.627 40.3044 203.895 39.3655H205.371C204.969 41.126 203.594 42.1152 201.565 42.1152ZM201.498 34.8052C200.123 34.8052 199.251 35.6267 199.05 37.0686H203.778C203.778 35.7106 202.89 34.8052 201.498 34.8052Z" fill="#151C2D"/>
<path d="M206.578 37.8231C206.578 35.2579 208.204 33.4807 210.602 33.4807C212.664 33.4807 214.106 34.6543 214.391 36.4818H212.815C212.547 35.4423 211.708 34.889 210.652 34.889C209.16 34.889 208.137 36.0291 208.137 37.8063C208.137 39.5667 209.093 40.7068 210.585 40.7068C211.708 40.7068 212.547 40.12 212.832 39.1476H214.408C214.089 40.9248 212.563 42.1152 210.585 42.1152C208.171 42.1152 206.578 40.405 206.578 37.8231Z" fill="#151C2D"/>
<path d="M218.384 41.914H216.808V35.0399H215.199V33.7154H216.808V31.1502H218.384V33.7154H219.994V35.0399H218.384V41.914Z" fill="#151C2D"/>
<path d="M224.864 42.1152C222.45 42.1152 220.79 40.3715 220.79 37.8231C220.79 35.2579 222.416 33.4807 224.797 33.4807C227.127 33.4807 228.653 35.0902 228.653 37.5213V38.1081L222.315 38.1249C222.433 39.8518 223.338 40.8074 224.897 40.8074C226.121 40.8074 226.926 40.3044 227.194 39.3655H228.67C228.267 41.126 226.892 42.1152 224.864 42.1152ZM224.797 34.8052C223.422 34.8052 222.55 35.6267 222.349 37.0686H227.077C227.077 35.7106 226.188 34.8052 224.797 34.8052Z" fill="#151C2D"/>
<path d="M233.699 42.1152C231.319 42.1152 229.877 40.338 229.877 37.8398C229.877 35.3249 231.335 33.4807 233.766 33.4807C235.024 33.4807 236.08 34.034 236.633 35.0399V29.5742H238.193V41.914H236.784L236.65 40.4218C236.114 41.5451 235.007 42.1152 233.699 42.1152ZM234.018 40.69C235.627 40.69 236.617 39.4997 236.617 37.7895C236.617 36.1129 235.627 34.9058 234.018 34.9058C232.408 34.9058 231.469 36.1129 231.469 37.7895C231.469 39.4829 232.408 40.69 234.018 40.69Z" fill="#151C2D"/>
<rect x="16.7659" y="15.834" width="39.1206" height="39.1206" rx="9" fill="#B781FF" fill-opacity="0.2"/>
<g clip-path="url(#clip0_32_1928)">
<path d="M47.4402 44.2594L41.6718 38.4909C42.987 36.8842 43.7787 34.8332 43.7787 32.6005C43.7778 27.4636 39.5993 23.2852 34.4633 23.2852C29.3274 23.2852 25.1489 27.4636 25.1489 32.5996C25.1489 37.7355 29.3274 41.914 34.4633 41.914C36.6969 41.914 38.748 41.1223 40.3538 39.8071L46.1222 45.5755L47.4393 44.2584L47.4402 44.2594ZM34.4633 40.0511C30.3548 40.0511 27.0118 36.7082 27.0118 32.5996C27.0118 28.491 30.3548 25.148 34.4633 25.148C38.5719 25.148 41.9149 28.491 41.9149 32.5996C41.9149 36.7082 38.5719 40.0511 34.4633 40.0511Z" fill="#B781FF"/>
<path d="M35.3948 27.9424H33.5319V37.2568H35.3948V27.9424Z" fill="#B781FF"/>
<path d="M38.1891 30.7367H36.3262V34.4624H38.1891V30.7367Z" fill="#B781FF"/>
<path d="M32.6004 29.8052H30.7375V35.3939H32.6004V29.8052Z" fill="#B781FF"/>
</g>
<defs>
<clipPath id="clip0_32_1928">
<rect width="22.3546" height="22.3546" fill="white" transform="translate(25.1489 23.2852)"/>
</clipPath>
</defs>
</svg>
