<svg width="394" height="56" viewBox="0 0 394 56" fill="none" xmlns="http://www.w3.org/2000/svg">
<rect x="0.5" y="0.5" width="393" height="54.8865" rx="15.5" fill="white" stroke="#D5E2FF"/>
<path d="M149.265 22.919V21.4101H158.202V22.919H154.563V33.5319H152.92V22.919H149.265Z" fill="#151C2D"/>
<path d="M161.161 33.5151H159.585V21.1921H161.161V26.5907C161.681 25.7022 162.67 25.0986 163.944 25.0986C166.04 25.0986 167.046 26.4231 167.046 28.5188V33.5319H165.47V28.8709C165.47 27.2111 164.682 26.5404 163.508 26.5404C161.983 26.5404 161.161 27.647 161.161 29.0553V33.5151Z" fill="#151C2D"/>
<path d="M171.626 33.733C169.866 33.733 168.827 32.7439 168.827 31.2517C168.827 29.7427 169.95 28.8039 171.878 28.653L174.46 28.4518V28.217C174.46 26.8422 173.638 26.356 172.532 26.356C171.207 26.356 170.453 26.9428 170.453 27.932H169.078C169.078 26.2219 170.486 25.0986 172.599 25.0986C174.628 25.0986 176.002 26.1716 176.002 28.3847V33.5319H174.661L174.493 32.2073C174.074 33.1462 172.951 33.733 171.626 33.733ZM172.079 32.5091C173.571 32.5091 174.477 31.5367 174.477 29.9942V29.5583L172.381 29.726C170.989 29.8601 170.419 30.3966 170.419 31.2014C170.419 32.0732 171.056 32.5091 172.079 32.5091Z" fill="#151C2D"/>
<path d="M179.761 33.5319H178.185V25.3333H179.61L179.778 26.5907C180.297 25.6519 181.337 25.0986 182.494 25.0986C184.657 25.0986 185.646 26.4231 185.646 28.5188V33.5319H184.07V28.8709C184.07 27.2111 183.299 26.5404 182.091 26.5404C180.616 26.5404 179.761 27.5967 179.761 29.1895V33.5319Z" fill="#151C2D"/>
<path d="M189.438 33.5319H187.862V21.1921H189.438V29.1895L193.076 25.3333H195.055L191.92 28.6027L195.038 33.5319H193.227L190.83 29.7427L189.438 31.2014V33.5319Z" fill="#151C2D"/>
<path d="M195.721 31.1511H197.23C197.23 31.9894 197.867 32.4924 198.907 32.4924C200.013 32.4924 200.65 32.0397 200.65 31.2852C200.65 30.7319 200.382 30.3966 199.527 30.1787L198.085 29.8433C196.626 29.4913 195.939 28.7703 195.939 27.5632C195.939 26.0542 197.213 25.0986 199.024 25.0986C200.818 25.0986 201.992 26.1045 202.025 27.6638H200.516C200.483 26.8422 199.929 26.3225 198.974 26.3225C197.985 26.3225 197.431 26.7584 197.431 27.5129C197.431 28.0662 197.834 28.435 198.638 28.6362L200.08 28.9883C201.472 29.3236 202.159 29.9607 202.159 31.1846C202.159 32.7439 200.818 33.733 198.873 33.733C196.945 33.733 195.721 32.7103 195.721 31.1511Z" fill="#151C2D"/>
<path d="M207.62 25.3333H208.827V24.0256C208.827 22.0136 209.933 21.1921 211.425 21.1921C211.727 21.1921 212.079 21.2089 212.398 21.2592V22.6172H211.694C210.671 22.6172 210.403 23.137 210.403 24.0256V25.3333H212.348V26.6578H210.403V33.5319H208.827V26.6578H207.62V25.3333Z" fill="#151C2D"/>
<path d="M213.031 29.4242C213.031 26.8925 214.841 25.1153 217.306 25.1153C219.754 25.1153 221.564 26.8925 221.564 29.4242C221.564 31.9559 219.754 33.733 217.306 33.733C214.841 33.733 213.031 31.9559 213.031 29.4242ZM214.623 29.4242C214.623 31.1343 215.713 32.3247 217.306 32.3247C218.882 32.3247 219.988 31.1343 219.988 29.4242C219.988 27.7141 218.882 26.5237 217.306 26.5237C215.713 26.5237 214.623 27.7141 214.623 29.4242Z" fill="#151C2D"/>
<path d="M228.003 25.2662V26.7081H227.299C225.807 26.7081 224.885 27.6135 224.885 29.1895V33.5319H223.309V25.3501H224.784L224.885 26.5907C225.22 25.7357 226.042 25.1656 227.165 25.1656C227.45 25.1656 227.685 25.1992 228.003 25.2662Z" fill="#151C2D"/>
<path d="M236.38 33.5319H234.804V26.6578H233.194V25.3333H234.804V22.7681H236.38V25.3333H237.989V26.6578H236.38V33.5319Z" fill="#151C2D"/>
<path d="M240.98 33.5151H239.404V21.1921H240.98V26.5907C241.499 25.7022 242.489 25.0986 243.763 25.0986C245.859 25.0986 246.864 26.4231 246.864 28.5188V33.5319H245.288V28.8709C245.288 27.2111 244.5 26.5404 243.327 26.5404C241.801 26.5404 240.98 27.647 240.98 29.0553V33.5151Z" fill="#151C2D"/>
<path d="M252.585 33.733C250.171 33.733 248.511 31.9894 248.511 29.441C248.511 26.8758 250.137 25.0986 252.518 25.0986C254.848 25.0986 256.374 26.7081 256.374 29.1392V29.726L250.037 29.7427C250.154 31.4696 251.059 32.4253 252.618 32.4253C253.842 32.4253 254.647 31.9223 254.915 30.9834H256.391C255.988 32.7439 254.614 33.733 252.585 33.733ZM252.518 26.4231C251.143 26.4231 250.271 27.2446 250.07 28.6865H254.798C254.798 27.3285 253.909 26.4231 252.518 26.4231Z" fill="#151C2D"/>
<path d="M262.199 29.223C262.199 26.9093 263.691 25.0986 266.072 25.0986C267.396 25.0986 268.419 25.7022 268.939 26.7249L269.056 25.3333H270.465V33.1965C270.465 35.7785 268.872 37.4216 266.357 37.4216C264.127 37.4216 262.601 36.1641 262.3 34.0851H263.876C264.077 35.2923 264.982 35.9964 266.357 35.9964C267.899 35.9964 268.905 34.9905 268.905 33.4313V31.7882C268.369 32.7439 267.296 33.3139 266.005 33.3139C263.674 33.3139 262.199 31.5199 262.199 29.223ZM263.775 29.1895C263.775 30.7319 264.731 31.9391 266.273 31.9391C267.866 31.9391 268.838 30.799 268.838 29.1895C268.838 27.6135 267.899 26.4734 266.29 26.4734C264.714 26.4734 263.775 27.6805 263.775 29.1895Z" fill="#151C2D"/>
<path d="M277.434 25.2662V26.7081H276.729C275.237 26.7081 274.315 27.6135 274.315 29.1895V33.5319H272.739V25.3501H274.214L274.315 26.5907C274.65 25.7357 275.472 25.1656 276.595 25.1656C276.88 25.1656 277.115 25.1992 277.434 25.2662Z" fill="#151C2D"/>
<path d="M282.155 33.733C279.74 33.733 278.08 31.9894 278.08 29.441C278.08 26.8758 279.707 25.0986 282.088 25.0986C284.418 25.0986 285.944 26.7081 285.944 29.1392V29.726L279.606 29.7427C279.724 31.4696 280.629 32.4253 282.188 32.4253C283.412 32.4253 284.217 31.9223 284.485 30.9834H285.96C285.558 32.7439 284.183 33.733 282.155 33.733ZM282.088 26.4231C280.713 26.4231 279.841 27.2446 279.64 28.6865H284.368C284.368 27.3285 283.479 26.4231 282.088 26.4231Z" fill="#151C2D"/>
<path d="M290.02 33.733C288.259 33.733 287.22 32.7439 287.22 31.2517C287.22 29.7427 288.343 28.8039 290.271 28.653L292.853 28.4518V28.217C292.853 26.8422 292.032 26.356 290.925 26.356C289.601 26.356 288.846 26.9428 288.846 27.932H287.471C287.471 26.2219 288.88 25.0986 290.992 25.0986C293.021 25.0986 294.396 26.1716 294.396 28.3847V33.5319H293.054L292.887 32.2073C292.467 33.1462 291.344 33.733 290.02 33.733ZM290.472 32.5091C291.965 32.5091 292.87 31.5367 292.87 29.9942V29.5583L290.774 29.726C289.383 29.8601 288.812 30.3966 288.812 31.2014C288.812 32.0732 289.45 32.5091 290.472 32.5091Z" fill="#151C2D"/>
<path d="M298.761 33.5319H297.185V26.6578H295.575V25.3333H297.185V22.7681H298.761V25.3333H300.37V26.6578H298.761V33.5319Z" fill="#151C2D"/>
<path d="M305.699 31.1511H307.208C307.208 31.9894 307.845 32.4924 308.884 32.4924C309.991 32.4924 310.628 32.0397 310.628 31.2852C310.628 30.7319 310.36 30.3966 309.504 30.1787L308.063 29.8433C306.604 29.4913 305.917 28.7703 305.917 27.5632C305.917 26.0542 307.191 25.0986 309.001 25.0986C310.795 25.0986 311.969 26.1045 312.003 27.6638H310.494C310.46 26.8422 309.907 26.3225 308.951 26.3225C307.962 26.3225 307.409 26.7584 307.409 27.5129C307.409 28.0662 307.811 28.435 308.616 28.6362L310.058 28.9883C311.449 29.3236 312.137 29.9607 312.137 31.1846C312.137 32.7439 310.795 33.733 308.851 33.733C306.922 33.733 305.699 32.7103 305.699 31.1511Z" fill="#151C2D"/>
<path d="M317.422 33.733C315.008 33.733 313.348 31.9894 313.348 29.441C313.348 26.8758 314.974 25.0986 317.355 25.0986C319.685 25.0986 321.211 26.7081 321.211 29.1392V29.726L314.874 29.7427C314.991 31.4696 315.896 32.4253 317.456 32.4253C318.679 32.4253 319.484 31.9223 319.753 30.9834H321.228C320.826 32.7439 319.451 33.733 317.422 33.733ZM317.355 26.4231C315.98 26.4231 315.108 27.2446 314.907 28.6865H319.635C319.635 27.3285 318.747 26.4231 317.355 26.4231Z" fill="#151C2D"/>
<path d="M327.666 25.2662V26.7081H326.962C325.47 26.7081 324.547 27.6135 324.547 29.1895V33.5319H322.971V25.3501H324.447L324.547 26.5907C324.883 25.7357 325.704 25.1656 326.828 25.1656C327.113 25.1656 327.347 25.1992 327.666 25.2662Z" fill="#151C2D"/>
<path d="M331.687 33.5319L328.384 25.3333H330.06L331.854 29.9104C332.139 30.6816 332.374 31.369 332.508 31.872C332.642 31.3355 332.911 30.6313 333.196 29.9104L335.023 25.3333H336.666L333.246 33.5319H331.687Z" fill="#151C2D"/>
<path d="M338.691 23.3884C338.121 23.3884 337.652 22.919 337.652 22.349C337.652 21.7622 338.121 21.3095 338.691 21.3095C339.261 21.3095 339.731 21.7622 339.731 22.349C339.731 22.919 339.261 23.3884 338.691 23.3884ZM337.92 33.5319V25.3333H339.496V33.5319H337.92Z" fill="#151C2D"/>
<path d="M341.248 29.441C341.248 26.8758 342.874 25.0986 345.271 25.0986C347.334 25.0986 348.775 26.2722 349.06 28.0997H347.484C347.216 27.0602 346.378 26.5069 345.322 26.5069C343.829 26.5069 342.807 27.647 342.807 29.4242C342.807 31.1846 343.762 32.3247 345.255 32.3247C346.378 32.3247 347.216 31.7379 347.501 30.7655H349.077C348.759 32.5427 347.233 33.733 345.255 33.733C342.84 33.733 341.248 32.0229 341.248 29.441Z" fill="#151C2D"/>
<path d="M354.278 33.733C351.863 33.733 350.204 31.9894 350.204 29.441C350.204 26.8758 351.83 25.0986 354.211 25.0986C356.541 25.0986 358.067 26.7081 358.067 29.1392V29.726L351.729 29.7427C351.847 31.4696 352.752 32.4253 354.311 32.4253C355.535 32.4253 356.34 31.9223 356.608 30.9834H358.084C357.681 32.7439 356.306 33.733 354.278 33.733ZM354.211 26.4231C352.836 26.4231 351.964 27.2446 351.763 28.6865H356.491C356.491 27.3285 355.602 26.4231 354.211 26.4231Z" fill="#151C2D"/>
<path d="M361.755 29.8936H360.531C360.364 28.6362 360.246 26.4063 360.246 24.2267V21.4101H362.057V24.2267C362.057 26.4399 361.923 28.653 361.755 29.8936ZM361.152 33.7666C360.481 33.7666 359.944 33.2301 359.944 32.5762C359.944 31.9223 360.481 31.3858 361.152 31.3858C361.789 31.3858 362.342 31.9223 362.342 32.5762C362.342 33.2301 361.789 33.7666 361.152 33.7666Z" fill="#151C2D"/>
<path d="M42.1601 20.2983C42.4782 19.4184 43.7227 19.4184 44.0409 20.2983L45.5379 24.4385C45.6769 24.8231 46.0361 25.0843 46.4448 25.098L50.8436 25.2453C51.778 25.2766 52.1622 26.4587 51.4249 27.0335L47.9496 29.7424C47.6273 29.9936 47.4903 30.4156 47.6035 30.8083L48.8248 35.0412C49.0841 35.9401 48.0773 36.6711 47.3028 36.1461L43.6616 33.6776C43.3228 33.4479 42.8782 33.4479 42.5393 33.6776L38.8981 36.1461C38.1237 36.6711 37.1168 35.9401 37.3761 35.0412L38.5974 30.8083C38.7107 30.4156 38.5736 29.9936 38.2513 29.7424L34.776 27.0335C34.0387 26.4587 34.423 25.2766 35.3573 25.2453L39.7561 25.098C40.1648 25.0843 40.524 24.8231 40.6631 24.4385L42.1601 20.2983Z" fill="#F3C11B"/>
<path d="M63.1601 20.2983C63.4782 19.4184 64.7227 19.4184 65.0409 20.2983L66.5379 24.4385C66.6769 24.8231 67.0361 25.0843 67.4448 25.098L71.8436 25.2453C72.778 25.2766 73.1622 26.4587 72.4249 27.0335L68.9496 29.7424C68.6273 29.9936 68.4903 30.4156 68.6035 30.8083L69.8248 35.0412C70.0841 35.9401 69.0773 36.6711 68.3028 36.1461L64.6616 33.6776C64.3228 33.4479 63.8782 33.4479 63.5393 33.6776L59.8981 36.1461C59.1237 36.6711 58.1168 35.9401 58.3761 35.0412L59.5974 30.8083C59.7107 30.4156 59.5736 29.9936 59.2513 29.7424L55.776 27.0335C55.0387 26.4587 55.423 25.2766 56.3573 25.2453L60.7561 25.098C61.1648 25.0843 61.524 24.8231 61.6631 24.4385L63.1601 20.2983Z" fill="#F3C11B"/>
<path d="M84.1601 20.2983C84.4782 19.4184 85.7227 19.4184 86.0409 20.2983L87.5379 24.4385C87.6769 24.8231 88.0361 25.0843 88.4448 25.098L92.8436 25.2453C93.778 25.2766 94.1622 26.4587 93.4249 27.0335L89.9496 29.7424C89.6273 29.9936 89.4903 30.4156 89.6035 30.8083L90.8248 35.0412C91.0841 35.9401 90.0773 36.6711 89.3028 36.1461L85.6616 33.6776C85.3228 33.4479 84.8782 33.4479 84.5393 33.6776L80.8981 36.1461C80.1237 36.6711 79.1168 35.9401 79.3761 35.0412L80.5974 30.8083C80.7107 30.4156 80.5736 29.9936 80.2513 29.7424L76.776 27.0335C76.0387 26.4587 76.423 25.2766 77.3573 25.2453L81.7561 25.098C82.1648 25.0843 82.524 24.8231 82.6631 24.4385L84.1601 20.2983Z" fill="#F3C11B"/>
<path d="M105.16 20.2983C105.478 19.4184 106.723 19.4184 107.041 20.2983L108.538 24.4385C108.677 24.8231 109.036 25.0843 109.445 25.098L113.844 25.2453C114.778 25.2766 115.162 26.4587 114.425 27.0335L110.95 29.7424C110.627 29.9936 110.49 30.4156 110.604 30.8083L111.825 35.0412C112.084 35.9401 111.077 36.6711 110.303 36.1461L106.662 33.6776C106.323 33.4479 105.878 33.4479 105.539 33.6776L101.898 36.1461C101.124 36.6711 100.117 35.9401 100.376 35.0412L101.597 30.8083C101.711 30.4156 101.574 29.9936 101.251 29.7424L97.776 27.0335C97.0387 26.4587 97.423 25.2766 98.3573 25.2453L102.756 25.098C103.165 25.0843 103.524 24.8231 103.663 24.4385L105.16 20.2983Z" fill="#F3C11B"/>
<path d="M126.16 20.2983C126.478 19.4184 127.723 19.4184 128.041 20.2983L129.538 24.4385C129.677 24.8231 130.036 25.0843 130.445 25.098L134.844 25.2453C135.778 25.2766 136.162 26.4587 135.425 27.0335L131.95 29.7424C131.627 29.9936 131.49 30.4156 131.604 30.8083L132.825 35.0412C133.084 35.9401 132.077 36.6711 131.303 36.1461L127.662 33.6776C127.323 33.4479 126.878 33.4479 126.539 33.6776L122.898 36.1461C122.124 36.6711 121.117 35.9401 121.376 35.0412L122.597 30.8083C122.711 30.4156 122.574 29.9936 122.251 29.7424L118.776 27.0335C118.039 26.4587 118.423 25.2766 119.357 25.2453L123.756 25.098C124.165 25.0843 124.524 24.8231 124.663 24.4385L126.16 20.2983Z" fill="#F3C11B"/>
</svg>
