<svg width="271" height="189" viewBox="0 0 271 189" fill="none" xmlns="http://www.w3.org/2000/svg">
<rect x="0.5" y="0.500122" width="270" height="187.797" rx="15.5" fill="white" stroke="#D5E2FF"/>
<path d="M25.0729 30.2581C25.0729 28.2419 26.6989 26.876 29.1216 26.876C31.3655 26.876 32.8126 28.1281 32.9427 30.1606H31.333C31.2517 28.9898 30.4224 28.3069 29.1054 28.3069C27.6257 28.3069 26.6664 29.0549 26.6664 30.2093C26.6664 31.1524 27.2029 31.7215 28.3086 31.9817L30.2436 32.437C32.1622 32.876 33.1378 33.9166 33.1378 35.5751C33.1378 37.6889 31.4956 39.0385 28.9915 39.0385C26.6013 39.0385 25.0078 37.7865 24.9103 35.7703H26.5363C26.5688 36.8922 27.5119 37.6076 28.9915 37.6076C30.5525 37.6076 31.5444 36.8759 31.5444 35.7052C31.5444 34.7784 31.0403 34.193 29.9184 33.9329L27.9834 33.4939C26.0647 33.0548 25.0729 31.9492 25.0729 30.2581Z" fill="#151C2D"/>
<path d="M38.3109 39.0385C35.9695 39.0385 34.3598 37.3475 34.3598 34.876C34.3598 32.3882 35.937 30.6646 38.2459 30.6646C40.506 30.6646 41.9857 32.2256 41.9857 34.5833V35.1524L35.8394 35.1686C35.9532 36.8434 36.8313 37.7702 38.3435 37.7702C39.5304 37.7702 40.3109 37.2824 40.5711 36.3719H42.002C41.6117 38.0792 40.2784 39.0385 38.3109 39.0385ZM38.2459 31.9492C36.9126 31.9492 36.0671 32.7459 35.8719 34.1443H40.4573C40.4573 32.8272 39.5955 31.9492 38.2459 31.9492Z" fill="#151C2D"/>
<path d="M45.2213 38.8434H43.6929V30.8923H45.075L45.2376 32.1118C45.7416 31.2012 46.7497 30.6646 47.8717 30.6646C49.9692 30.6646 50.9286 31.9492 50.9286 33.9817V38.8434H49.4001V34.3231C49.4001 32.7134 48.6522 32.063 47.4814 32.063C46.0506 32.063 45.2213 33.0874 45.2213 34.6321V38.8434Z" fill="#151C2D"/>
<path d="M55.2894 38.8434H53.761V32.1768H52.2V30.8923H53.761V28.4045H55.2894V30.8923H56.8504V32.1768H55.2894V38.8434Z" fill="#151C2D"/>
<path d="M58.97 29.0061C58.4172 29.0061 57.9619 28.5508 57.9619 27.998C57.9619 27.4289 58.4172 26.9899 58.97 26.9899C59.5229 26.9899 59.9781 27.4289 59.9781 27.998C59.9781 28.5508 59.5229 29.0061 58.97 29.0061ZM58.2221 38.8434V30.8923H59.7505V38.8434H58.2221Z" fill="#151C2D"/>
<path d="M63.4979 38.8434H61.9695V30.8923H63.3353L63.4817 31.9329C63.8882 31.1849 64.7337 30.6646 65.8556 30.6646C67.0914 30.6646 67.9694 31.2825 68.3759 32.2744C68.7499 31.2825 69.7092 30.6646 70.945 30.6646C72.7661 30.6646 73.8718 31.8028 73.8718 33.6402V38.8434H72.3759V34.0142C72.3759 32.7622 71.6767 32.0467 70.6035 32.0467C69.4491 32.0467 68.6849 32.8597 68.6849 34.128V38.8434H67.1727V33.9979C67.1727 32.7459 66.4898 32.063 65.4166 32.063C64.2621 32.063 63.4979 32.8597 63.4979 34.128V38.8434Z" fill="#151C2D"/>
<path d="M79.4214 39.0385C77.08 39.0385 75.4702 37.3475 75.4702 34.876C75.4702 32.3882 77.0475 30.6646 79.3564 30.6646C81.6165 30.6646 83.0962 32.2256 83.0962 34.5833V35.1524L76.9499 35.1686C77.0637 36.8434 77.9418 37.7702 79.4539 37.7702C80.6409 37.7702 81.4214 37.2824 81.6816 36.3719H83.1124C82.7222 38.0792 81.3889 39.0385 79.4214 39.0385ZM79.3564 31.9492C78.0231 31.9492 77.1775 32.7459 76.9824 34.1443H81.5677C81.5677 32.8272 80.706 31.9492 79.3564 31.9492Z" fill="#151C2D"/>
<path d="M86.3318 38.8434H84.8034V30.8923H86.1855L86.3481 32.1118C86.8521 31.2012 87.8602 30.6646 88.9822 30.6646C91.0797 30.6646 92.039 31.9492 92.039 33.9817V38.8434H90.5106V34.3231C90.5106 32.7134 89.7627 32.063 88.5919 32.063C87.1611 32.063 86.3318 33.0874 86.3318 34.6321V38.8434Z" fill="#151C2D"/>
<path d="M96.3999 38.8434H94.8715V32.1768H93.3105V30.8923H94.8715V28.4045H96.3999V30.8923H97.9609V32.1768H96.3999V38.8434Z" fill="#151C2D"/>
<path d="M109.079 28.3882C106.543 28.3882 105.014 30.2581 105.014 33.0386C105.014 35.8841 106.673 37.5263 109.096 37.5263C111.096 37.5263 112.705 36.502 112.705 34.128V33.7865H108.77V32.3719H114.201V38.8597H112.868L112.754 37.2662C112.12 38.2906 110.689 39.0385 108.966 39.0385C105.632 39.0385 103.34 36.632 103.34 33.0061C103.34 29.4289 105.649 26.8923 109.112 26.8923C111.681 26.8923 113.681 28.372 114.071 30.6321H112.38C111.941 29.1362 110.64 28.3882 109.079 28.3882Z" fill="#151C2D"/>
<path d="M120.765 30.8272V32.2256H120.082C118.635 32.2256 117.74 33.1036 117.74 34.6321V38.8434H116.212V30.9085H117.643L117.74 32.1118C118.065 31.2825 118.862 30.7297 119.952 30.7297C120.228 30.7297 120.456 30.7622 120.765 30.8272Z" fill="#151C2D"/>
<path d="M124.206 39.0385C122.498 39.0385 121.49 38.0792 121.49 36.632C121.49 35.1686 122.58 34.2581 124.45 34.1117L126.954 33.9166V33.689C126.954 32.3557 126.157 31.8841 125.084 31.8841C123.799 31.8841 123.068 32.4532 123.068 33.4126H121.734C121.734 31.754 123.1 30.6646 125.149 30.6646C127.116 30.6646 128.45 31.7053 128.45 33.8516V38.8434H127.149L126.986 37.5589C126.58 38.4694 125.49 39.0385 124.206 39.0385ZM124.645 37.8515C126.092 37.8515 126.97 36.9085 126.97 35.4125V34.9898L124.937 35.1524C123.588 35.2825 123.035 35.8028 123.035 36.5833C123.035 37.4288 123.653 37.8515 124.645 37.8515Z" fill="#151C2D"/>
<path d="M130.566 42.4043V30.8923H131.948L132.062 32.3231C132.599 31.2337 133.672 30.6646 134.94 30.6646C137.217 30.6646 138.631 32.3719 138.631 34.8109C138.631 37.2337 137.298 39.0548 134.94 39.0548C133.672 39.0548 132.615 38.5182 132.095 37.5426V42.4043H130.566ZM132.111 34.876C132.111 36.502 133.054 37.6727 134.615 37.6727C136.176 37.6727 137.103 36.502 137.103 34.876C137.103 33.2337 136.176 32.063 134.615 32.063C133.054 32.063 132.111 33.2174 132.111 34.876Z" fill="#151C2D"/>
<path d="M141.844 38.8271H140.316V26.876H141.844V32.1118C142.349 31.25 143.308 30.6646 144.544 30.6646C146.576 30.6646 147.552 31.9492 147.552 33.9817V38.8434H146.023V34.3231C146.023 32.7134 145.259 32.063 144.121 32.063C142.641 32.063 141.844 33.1361 141.844 34.502V38.8271Z" fill="#151C2D"/>
<path d="M31.6167 110.789C31.6167 107.475 34.303 104.789 37.6167 104.789H51.8134C55.1271 104.789 57.8134 107.475 57.8134 110.789V130.985H31.6167V110.789Z" fill="#7BA5FF"/>
<path d="M62.3301 107.175C62.3301 103.862 65.0164 101.175 68.3301 101.175H82.5267C85.8405 101.175 88.5267 103.862 88.5267 107.175V130.985H62.3301V107.175Z" fill="#7BA5FF"/>
<path d="M93.0435 116.209C93.0435 112.895 95.7297 110.209 99.0435 110.209H114.143C117.457 110.209 120.143 112.895 120.143 116.209V130.985H93.0435V116.209Z" fill="#7BA5FF"/>
<path d="M122.853 110.789C122.853 107.475 125.54 104.789 128.853 104.789H143.953C147.267 104.789 149.953 107.475 149.953 110.789V130.985H122.853V110.789Z" fill="#7BA5FF"/>
<path d="M152.663 100.852C152.663 97.5382 155.35 94.8519 158.663 94.8519H173.763C177.077 94.8519 179.763 97.5382 179.763 100.852V130.985H152.663V100.852Z" fill="#7BA5FF"/>
<path d="M184.28 60.2019C184.28 56.8882 186.966 54.2019 190.28 54.2019H204.477C207.79 54.2019 210.477 56.8882 210.477 60.2019V130.985H184.28V60.2019Z" fill="#7BA5FF"/>
<path d="M214.993 70.1386C214.993 66.8248 217.68 64.1385 220.993 64.1385H235.19C238.504 64.1385 241.19 66.8248 241.19 70.1385V130.985H214.993V70.1386Z" fill="#7BA5FF"/>
<path d="M31.6167 148.472C31.6167 151.786 34.303 154.472 37.6167 154.472H51.8134C55.1271 154.472 57.8134 151.786 57.8134 148.472V130.985H31.6167V148.472Z" fill="#B881FF"/>
<path d="M62.3301 143.052C62.3301 146.366 65.0164 149.052 68.3301 149.052H82.5267C85.8405 149.052 88.5267 146.366 88.5267 143.052V130.985H62.3301V143.052Z" fill="#B881FF"/>
<path d="M93.0435 148.472C93.0435 151.786 95.7297 154.472 99.0435 154.472H114.143C117.457 154.472 120.143 151.786 120.143 148.472V130.985H93.0435V148.472Z" fill="#B881FF"/>
<path d="M122.853 143.052C122.853 146.366 125.54 149.052 128.853 149.052H143.953C147.267 149.052 149.953 146.366 149.953 143.052V130.985H122.853V143.052Z" fill="#B881FF"/>
<path d="M152.663 143.052C152.663 146.366 155.35 149.052 158.663 149.052H173.763C177.077 149.052 179.763 146.366 179.763 143.052V130.985H152.663V143.052Z" fill="#B881FF"/>
<path d="M184.28 148.472C184.28 151.786 186.966 154.472 190.28 154.472H204.477C207.79 154.472 210.477 151.786 210.477 148.472V130.985H184.28V148.472Z" fill="#B881FF"/>
<path d="M214.993 140.342C214.993 143.656 217.68 146.342 220.993 146.342H235.19C238.504 146.342 241.19 143.656 241.19 140.342V130.985H214.993V140.342Z" fill="#B881FF"/>
<path d="M24.3901 130.533H248.417" stroke="#DDE7EA"/>
<path d="M45.1667 110.659L76.7834 106.594L107.045 116.983L136.403 111.563L166.665 101.626L198.282 60.5243L228.995 71.3643" stroke="#151C2D" stroke-width="2"/>
<circle cx="44.715" cy="110.658" r="3.25833" fill="white" stroke="#151C2D" stroke-width="2"/>
<circle cx="75.4284" cy="107.045" r="3.25833" fill="white" stroke="#151C2D" stroke-width="2"/>
<circle cx="107.045" cy="116.982" r="3.25833" fill="white" stroke="#151C2D" stroke-width="2"/>
<circle cx="136.855" cy="111.562" r="3.25833" fill="white" stroke="#151C2D" stroke-width="2"/>
<circle cx="166.665" cy="101.625" r="3.25833" fill="white" stroke="#151C2D" stroke-width="2"/>
<circle cx="198.282" cy="60.9751" r="3.25833" fill="white" stroke="#151C2D" stroke-width="2"/>
<circle cx="228.995" cy="70.9118" r="3.25833" fill="white" stroke="#151C2D" stroke-width="2"/>
</svg>
