<svg width="24" height="24" viewBox="0 0 24 24" fill="none" xmlns="http://www.w3.org/2000/svg">
<path fill-rule="evenodd" clip-rule="evenodd" d="M7.08443 11.0844L8.55131 6.68377H10.4487L11.9156 11.0844L16.3162 12.5513V14.4487L11.9156 15.9156L10.4487 20.3162H8.55131L7.08443 15.9156L2.68377 14.4487V12.5513L7.08443 11.0844ZM9.5 10.1623L8.82368 12.1912L8.19123 12.8237L6.16227 13.5L8.19123 14.1763L8.82368 14.8088L9.5 16.8377L10.1763 14.8088L10.8088 14.1763L12.8377 13.5L10.8088 12.8237L10.1763 12.1912L9.5 10.1623Z" fill="black"/>
<path fill-rule="evenodd" clip-rule="evenodd" d="M16.1507 5.15066L16.9308 2.81026H18.0692L18.8493 5.15066L21.1897 5.93079V7.06921L18.8493 7.84934L18.0692 10.1897H16.9308L16.1507 7.84934L13.8103 7.06921V5.93079L16.1507 5.15066Z" fill="black"/>
</svg>
